<svg width="59" height="80" viewBox="0 0 59 80" fill="none" xmlns="http://www.w3.org/2000/svg">
<path d="M43.3272 33.0322H42.8272V33.5322V57.9572H15.6402V33.5322V33.0322H15.1402H4.93182L29.2337 3.82231L53.5355 33.0322H43.3272Z" fill="#32B5BA" stroke="#32B5BA"/>
<path d="M29.2812 6.39192L29.661 6.83551L53.7501 34.9692C54.2279 35.5272 54.9254 35.8211 55.6392 35.8211C56.1865 35.8211 56.7296 35.6478 57.1788 35.2976C58.2119 34.4904 58.358 33.0548 57.5228 32.0812L57.5225 32.0809L31.1677 1.30108C31.1676 1.30103 31.1676 1.30099 31.1675 1.30094C30.7214 0.780789 30.0162 0.5 29.2797 0.5C28.5433 0.5 27.8381 0.780731 27.392 1.30078L29.2812 6.39192ZM29.2812 6.39192L28.9014 6.83553L4.81521 34.9692C3.9651 35.962 2.4303 36.1099 1.38361 35.2977C0.350652 34.4878 0.206881 33.0546 1.03996 32.0807L27.3918 1.30108L29.2812 6.39192Z" fill="#32B5BA" stroke="#32B5BA"/>
<path d="M14.6422 60.9982C13.2777 60.9982 12.2145 59.9504 12.2145 58.7008V33.524C12.2145 32.2744 13.2777 31.2266 14.6422 31.2266C16.0068 31.2266 17.0699 32.2744 17.0699 33.524V58.7008C17.0699 59.9504 16.0068 60.9982 14.6422 60.9982Z" fill="#32B5BA" stroke="#32B5BA"/>
<path d="M43.9192 60.9979H14.6422C13.2777 60.9979 12.2145 59.9501 12.2145 58.7005C12.2145 57.4509 13.2777 56.4031 14.6422 56.4031H43.9192C45.2838 56.4031 46.3469 57.4509 46.3469 58.7005C46.3469 59.9501 45.2838 60.9979 43.9192 60.9979Z" fill="#32B5BA" stroke="#32B5BA"/>
<path d="M43.9198 60.9982C42.5552 60.9982 41.4921 59.9504 41.4921 58.7008V33.524C41.4921 32.2744 42.5552 31.2266 43.9198 31.2266C45.2843 31.2266 46.3475 32.2744 46.3475 33.524V58.7008C46.3475 59.9504 45.2843 60.9982 43.9198 60.9982Z" fill="#32B5BA" stroke="#32B5BA"/>
<path d="M14.6431 35.8214H2.92941C1.56484 35.8214 0.501709 34.7736 0.501709 33.524C0.501709 32.2744 1.56484 31.2266 2.92941 31.2266H14.6431C16.0077 31.2266 17.0708 32.2744 17.0708 33.524C17.0708 34.7736 16.0077 35.8214 14.6431 35.8214Z" fill="#32B5BA" stroke="#32B5BA"/>
<path d="M55.6364 35.8214H43.9198C42.5552 35.8214 41.4921 34.7736 41.4921 33.524C41.4921 32.2744 42.5552 31.2266 43.9198 31.2266H55.6364C57.001 31.2266 58.0641 32.2744 58.0641 33.524C58.0641 34.7736 57.001 35.8214 55.6364 35.8214Z" fill="#32B5BA" stroke="#32B5BA"/>
<path d="M34.872 39.2014H23.5973C22.0385 39.2014 20.7786 37.9222 20.7786 36.3397C20.7786 34.7572 22.0385 33.478 23.5973 33.478H34.872C36.4308 33.478 37.6907 34.7572 37.6907 36.3397C37.6907 37.9222 36.4308 39.2014 34.872 39.2014Z" fill="#489BB3"/>
<path d="M29.2341 44.9222C27.6754 44.9222 26.4154 43.643 26.4154 42.0605V30.6194C26.4154 29.0369 27.6754 27.7577 29.2341 27.7577C30.7928 27.7577 32.0528 29.0369 32.0528 30.6194V42.0605C32.0528 43.643 30.7928 44.9222 29.2341 44.9222Z" fill="#489BB3"/>
<rect x="11.694" y="65.1582" width="35.1773" height="5.59071" rx="2.79536" fill="#32B5BA"/>
<rect x="11.694" y="74.4093" width="35.1773" height="5.59071" rx="2.79536" fill="#32B5BA"/>
</svg>
